<svg id="Layer_1" data-name="Layer 1" xmlns="http://www.w3.org/2000/svg" viewBox="0 0 145 125.67"><defs><style>.cls-1{fill:#38c0e0;}</style></defs><title>Happy Cat</title><path class="cls-1" d="M72.94,108.17a7.51,7.51,0,0,0,7.48-7h-15A7.51,7.51,0,0,0,72.94,108.17Z"/><circle class="cls-1" cx="37.94" cy="70.67" r="8"/><circle class="cls-1" cx="107.95" cy="70.67" r="8"/><path class="cls-1" d="M132.35,1.63l-34.72,20H47.26l-34.72-20A4,4,0,0,0,6.7,6.2l9.24,32v65.48a20,20,0,0,0,20,20h73a20,20,0,0,0,20-20V38.19l9.24-32A4,4,0,0,0,132.35,1.63Zm-94.41,82a13,13,0,1,1,13-13A13,13,0,0,1,37.94,83.67Zm57,17.5H85.42a12.48,12.48,0,0,1-25,0H50.94a2.5,2.5,0,0,1,0-5h19.5V88.36L67,87a2.5,2.5,0,1,1,1.85-4.64L72.94,84,77,82.35A2.5,2.5,0,1,1,78.87,87l-3.42,1.37v7.81H95a2.5,2.5,0,0,1,0,5Zm13-17.5a13,13,0,1,1,13-13A13,13,0,0,1,108,83.67Z"/></svg>