<svg id="Layer_1" data-name="Layer 1" xmlns="http://www.w3.org/2000/svg" viewBox="0 0 145 125.67"><defs><style>.cls-1,.cls-2{fill:#e70036;}.cls-2{fill-rule:evenodd;}</style></defs><title>Sad Pug</title><circle class="cls-1" cx="107.94" cy="69.67" r="8"/><path class="cls-2" d="M140.39,26.75,122.7,21.24a18.93,18.93,0,0,0-6.3.64,15.31,15.31,0,0,0-2.46-.21h-83a14.68,14.68,0,0,0-2.49.22,21.68,21.68,0,0,0-6.75-.54L4.46,26.62A5,5,0,0,0,.52,31.67l.37,11.7a5,5,0,0,0,8.42,3.4c2.44-2.28,3.43-4.38,6.63-5.55v67.45a15,15,0,0,0,15,15h83a15,15,0,0,0,15-15V41.36c3.21,1.17,4.2,3.27,6.64,5.55A5,5,0,0,0,144,43.33l.36-11.48A5.06,5.06,0,0,0,140.39,26.75ZM37.94,82.67a13,13,0,0,1-13-13,13.14,13.14,0,0,1,.48-3.46,27,27,0,0,1,9.93-6.74,49.25,49.25,0,0,1,7.29-1.91,13,13,0,0,1-4.7,25.11Zm59.35,25.85a2.49,2.49,0,0,1-2.35,1.65,2.54,2.54,0,0,1-.85-.15l-21.15-7.69L51.8,110a2.5,2.5,0,0,1-1.71-4.7l20.35-7.4V88.36L67,87a2.5,2.5,0,1,1,1.85-4.64L72.94,84,77,82.35A2.5,2.5,0,1,1,78.87,87l-3.43,1.37v9.56l20.36,7.4A2.48,2.48,0,0,1,97.29,108.52Zm10.65-25.85a13,13,0,0,1-4.69-25.11,49.25,49.25,0,0,1,7.29,1.91,26.86,26.86,0,0,1,9.92,6.74,12.74,12.74,0,0,1,.48,3.46A13,13,0,0,1,107.94,82.67Z"/><circle class="cls-1" cx="37.94" cy="69.67" r="8"/></svg>